<svg id="Layer_1" data-name="Layer 1" xmlns="http://www.w3.org/2000/svg" viewBox="0 0 315.07 298.92"><defs><style>.cls-1{fill:#ed1846;}.cls-2{fill:#fff;}</style></defs><title>Scouts-logo</title><path class="cls-1" d="M272.58,391l38.61-17-13.08-5,14-22.26-26.93-1.26c-.16,0,4.67-13.07,4.67-13.07l-24,12.62L279.42,306l-16.49,8.56-13.08-38-13.39,37.36L220.11,306l12.14,39.23-23.51-13.08L213.1,346l-26.16.62,13.23,22.11-12.75,5.14,37.67,16.66-3.9,9.49,23.21-5.45v7.48h9.34v-7.79l23.35,5.92ZM250,329.14c8,3.75,13.53,10.95,9.8,23.67-4.95,11.43-4.82,14.69-4.82,14.63s-5.16-.12-5.14-.16l-4.75.16s0-3.64-4.32-12C236.51,346.46,236.91,335.37,250,329.14Zm10.63,41.65c1.58.8.5,1.91,0,1.94-1.69.95-21.46.73-22.66-.54-.08-.11-.72-.95.55-1.48C244.42,369.42,255.62,370,260.61,370.79Zm-34.3-2.41c-1.88.53-5.21-.08-7.83-3.78-3-5.35-.91-12,2.3-14.25,14.63-8.42,20.32,11.57,22.08,17.32-1.32.15-2.35.35-4.4.67C237.34,359.67,223.82,359.6,226.31,368.38ZM237,384c-1.37.25-5-.38-5.17-4.9a4.65,4.65,0,0,0,4.08.38c1.71-1.35,2.18-2.49,3-4.59a24.06,24.06,0,0,0,3.47.66c-.43,2.81-.8,4.71-2.49,6.7C239,383.24,238.34,384,237,384Zm12.61,8.08s0,0,0,0,0,0,0,0a18.47,18.47,0,0,1-8.38-7.73,14.67,14.67,0,0,0,3.29-8.41s2.58.24,5.18.26c2.84,0,5.25-.1,5.25-.1s.46,6.34,3.29,8.25c.05,0,.16.06.14.12C256,389.24,250.73,391.44,249.58,392.1ZM263,384.4a4.31,4.31,0,0,1-3.15-1.75c-1.69-2-2.14-4-2.57-6.78a23.8,23.8,0,0,0,3.47-.66c.78,2.1,1.25,3.23,2.95,4.59a4.42,4.42,0,0,0,4-.22C267.51,384.13,264.19,384.61,263,384.4Zm-1.62-16c-3.28-.34-3.31-.54-4.39-.66,1.74-5.76,7.44-25.75,22.06-17.32,3.21,2.21,5.31,8.89,2.3,14.25-2.61,3.69-5.95,4.3-7.82,3.77C276,359.64,262.5,359.7,261.39,368.37Z" transform="translate(-92.85 -169.86)"/><path class="cls-2" d="M324.11,427.49h4.33s-1.94-10.18-2.09-11.45Z" transform="translate(-92.85 -169.86)"/><path class="cls-2" d="M347.09,415.21h-3.33v19.14H346c4.51,0,4.81-2.38,4.81-10.22C350.78,417.74,350.12,415.21,347.09,415.21Z" transform="translate(-92.85 -169.86)"/><path class="cls-2" d="M175.26,414.66c-4,0-3.66,4.74-3.66,6.84V429c0,2.24.18,5.88,3.66,5.88s3.64-3.72,3.64-6.32v-6.93C178.9,419.47,179,414.66,175.26,414.66Z" transform="translate(-92.85 -169.86)"/><path class="cls-2" d="M92.85,430.38c0,11.21,4.56,21.05,12.88,27.83s20.22,10.57,34.8,10.57h0c-14.59,0-26.47-3.76-34.81-10.57A35.1,35.1,0,0,1,92.85,430.38Z" transform="translate(-92.85 -169.86)"/><path class="cls-2" d="M282.23,427.49h4.33s-1.95-10.18-2.09-11.45Z" transform="translate(-92.85 -169.86)"/><path class="cls-2" d="M281.84,200.14c-4.54-8.24-9.72-14.3-15.09-18.23s-10.9-5.82-16.37-5.82-11,1.87-16.37,5.82-10.55,10-15.08,18.23L106.44,404.94c-5.06,9.22-7.37,17.81-7.36,25.31,0,9.63,3.69,17.44,10.59,23.13s17.33,9.17,30.87,9.17H360.23c13.54,0,23.94-3.5,30.86-9.17s10.57-13.5,10.6-23.13c0-7.5-2.3-16.09-7.37-25.31Zm-40.79,25-9-14.39,9.07-13.55L249.86,211l8.7-13.88,9,13.55-9,14.35L369.5,401.89l-18.39,0L249.85,239.21,148.58,401.91l-18.39,0ZM135,439c-6.07,0-8.23-3.4-8.23-8.24v-2h5.05v1.59c-.11,2.64.69,4.55,3.18,4.55,2.13,0,3.14-1.12,3.14-3.17a4.1,4.1,0,0,0-2-3.58c-2.64-2.06-5.92-3.54-8-6.25a7.53,7.53,0,0,1-1.3-4.15c0-4.63,2.6-7.16,8-7.16,8,0,7.84,6.22,7.87,8.89h-4.87c0-2.42-.19-4.81-3-4.81-1.7,0-2.78.69-2.78,2.53,0,2.06,1.3,2.86,2.89,3.87a47.24,47.24,0,0,1,6.14,4.44,7.09,7.09,0,0,1,2.27,5.67C143.32,436.3,139.93,439,135,439Zm28.18-8.75c-.26,4.95-1.92,8.75-7.55,8.75-8.31,0-8.86-5.28-8.86-12.5v-3.86c.22-6.91.77-12,8.86-12,4.51.08,7,2.39,7.4,7a13,13,0,0,1,.11,2.06h-5c-.22-1.73,0-5-2.52-5-4,0-3.65,4.74-3.65,6.83V429c0,2.23.18,5.88,3.65,5.88,2.78,0,2.45-4.48,2.56-6.21h5.09C163.23,429.19,163.19,429.73,163.16,430.23Zm20.94-3.75c0,7.23-.55,12.49-8.84,12.49s-8.86-5.26-8.86-12.49v-3.86c.22-6.91.76-12,8.86-12s8.63,5.13,8.84,12Zm20.62,3.65c0,6-1.95,8.84-8.56,8.84s-8.64-2.85-8.64-8.84V411.24h5.07v18.45c0,2.6.17,5.2,3.61,5.2,3.28,0,3.46-2.6,3.46-5.2V411.24h5.06Zm19.61-14.92h-5.89v23.12h-5.05V415.21h-5.93v-4h16.87ZM234.62,439c-6.07,0-8.23-3.4-8.23-8.24v-2h5.05v1.59c-.1,2.64.69,4.55,3.18,4.55,2.13,0,3.14-1.12,3.14-3.17a4.1,4.1,0,0,0-2-3.58c-2.64-2.06-5.92-3.54-8-6.25a7.53,7.53,0,0,1-1.3-4.15c0-4.63,2.6-7.16,7.95-7.16,8.05,0,7.84,6.22,7.87,8.89H237.4c0-2.42-.18-4.81-3-4.81-1.69,0-2.78.69-2.78,2.53,0,2.06,1.31,2.86,2.88,3.87a46.67,46.67,0,0,1,6.15,4.44,7.07,7.07,0,0,1,2.28,5.67C243,436.3,239.57,439,234.62,439Zm19.12-36.93H244.4v-7.48L221.19,400l3.9-9.49-37.67-16.66,12.75-5.14-13.23-22.11L213.1,346l-4.36-13.86,23.51,13.08L220.11,306l16.35,7.93,13.39-37.36,13.08,38L279.42,306l-13.54,39.08,24-12.62s-4.83,13.07-4.67,13.07l26.93,1.26-14,22.26,13.08,5-38.61,17,4.51,9.18-23.35-5.92ZM273,430.23c-.25,4.95-1.91,8.75-7.56,8.75-8.3,0-8.84-5.28-8.84-12.5v-3.86c.22-6.91.76-12,8.84-12,4.53.08,7.06,2.39,7.41,7a11.91,11.91,0,0,1,.11,2.06h-5c-.21-1.73,0-5-2.54-5-4,0-3.63,4.74-3.63,6.83V429c0,2.23.18,5.88,3.63,5.88,2.8,0,2.46-4.48,2.58-6.21h5.09C273.05,429.19,273,429.73,273,430.23Zm15.71,8.1-1.33-6.87h-5.93l-1.34,6.87h-5.41l6.47-27.09H288l6.14,27.09Zm25.46,0h-5.27l-3.94-9.65a89.9,89.9,0,0,1-3.61-10.76h-.08c.19,2.23.41,5,.55,7.73s.25,5.42.25,7.58v5.1H297V411.24h5.23l3.94,9.85a90.46,90.46,0,0,1,3.61,10.77h.07c-.18-2.46-.36-5.1-.5-7.7s-.26-5.2-.26-7.62v-5.3h5.06Zm16.43,0-1.34-6.87h-5.93L322,438.33h-5.42L323,411.24h6.82L336,438.33Zm21.24-.72a7.54,7.54,0,0,1-3.75.72h-9.36V411.24h10.55a6.27,6.27,0,0,1,5.23,3.06c1.16,1.88,1.48,4.88,1.48,9.36C356,429,356,435.18,351.82,437.61Zm19.86.72-1.33-6.87h-5.93l-1.34,6.87h-5.41l6.46-27.09H371l6.14,27.09Z" transform="translate(-92.85 -169.86)"/><path class="cls-2" d="M230.32,176.89c-6.27,4.6-12,11.39-16.85,20.26C218.35,188.28,224.05,181.5,230.32,176.89Z" transform="translate(-92.85 -169.86)"/><path class="cls-2" d="M365.21,427.49h4.34s-1.95-10.18-2.09-11.45Z" transform="translate(-92.85 -169.86)"/><path class="cls-2" d="M287.29,197.15,399.78,401.94a71.63,71.63,0,0,1,5.75,13.45,71.71,71.71,0,0,0-5.75-13.46L287.29,197.15c-4.87-8.87-10.58-15.66-16.85-20.26C276.71,181.5,282.42,188.28,287.29,197.15Z" transform="translate(-92.85 -169.86)"/><path class="cls-2" d="M213.47,197.15,101,401.93a67,67,0,0,0-7.19,19,66.94,66.94,0,0,1,7.19-19Z" transform="translate(-92.85 -169.86)"/><path class="cls-2" d="M258.21,384.37c-2.83-1.91-3.29-8.25-3.29-8.25s-2.41.12-5.25.1c-2.6,0-5.18-.29-5.18-.26a14.67,14.67,0,0,1-3.29,8.41,18.47,18.47,0,0,0,8.38,7.73c1.15-.66,6.43-2.86,8.77-7.61C258.37,384.43,258.26,384.41,258.21,384.37Z" transform="translate(-92.85 -169.86)"/><path class="cls-2" d="M263.71,379.8c-1.7-1.36-2.17-2.49-2.95-4.59a23.8,23.8,0,0,1-3.47.66c.43,2.82.88,4.78,2.57,6.78A4.31,4.31,0,0,0,263,384.4c1.18.21,4.5-.27,4.72-4.82A4.42,4.42,0,0,1,263.71,379.8Z" transform="translate(-92.85 -169.86)"/><path class="cls-2" d="M238.46,368.34c2-.32,3.08-.52,4.4-.67-1.76-5.75-7.45-25.74-22.08-17.32-3.21,2.21-5.31,8.9-2.3,14.25,2.62,3.7,6,4.31,7.83,3.78C223.82,359.6,237.34,359.67,238.46,368.34Z" transform="translate(-92.85 -169.86)"/><path class="cls-2" d="M238.84,374.91c-.78,2.1-1.25,3.24-3,4.59a4.65,4.65,0,0,1-4.08-.38c.21,4.52,3.8,5.15,5.17,4.9,1.37,0,2-.78,2.85-1.75,1.69-2,2.06-3.89,2.49-6.7A24.06,24.06,0,0,1,238.84,374.91Z" transform="translate(-92.85 -169.86)"/><path class="cls-2" d="M238.53,370.71c-1.27.53-.63,1.37-.55,1.48,1.2,1.27,21,1.49,22.66.54.47,0,1.55-1.14,0-1.94C255.62,370,244.42,369.42,238.53,370.71Z" transform="translate(-92.85 -169.86)"/><path class="cls-2" d="M273.54,368.41c1.87.53,5.21-.08,7.82-3.77,3-5.36.91-12-2.3-14.25C264.44,342,258.74,362,257,367.71c1.08.12,1.11.32,4.39.66C262.5,359.7,276,359.64,273.54,368.41Z" transform="translate(-92.85 -169.86)"/><path class="cls-2" d="M245.07,367.44l4.75-.16s5.11.15,5.14.16-.13-3.2,4.82-14.63c3.73-12.72-1.85-19.92-9.8-23.67-13.07,6.23-13.47,17.32-9.23,26.33C245,363.8,245.11,367.41,245.07,367.44Z" transform="translate(-92.85 -169.86)"/><polygon class="cls-2" points="157 69.35 258.26 232.04 276.65 232.03 165.81 55.2 174.75 40.84 165.71 27.3 157.01 41.17 148.32 27.3 139.25 40.84 148.2 55.23 37.34 232.03 55.73 232.04 157 69.35"/><polygon points="157 69.35 258.26 232.04 276.65 232.03 165.81 55.2 174.75 40.84 165.71 27.3 157.01 41.17 148.32 27.3 139.25 40.84 148.2 55.23 37.34 232.03 55.73 232.04 157 69.35"/><path class="cls-2" d="M134.91,421.06c-1.59-1-2.89-1.81-2.89-3.87,0-1.84,1.08-2.53,2.78-2.53,2.78,0,3,2.39,3,4.81h4.87c0-2.67.18-8.89-7.87-8.89-5.35,0-8,2.53-8,7.16a7.53,7.53,0,0,0,1.3,4.15c2.06,2.71,5.34,4.19,8,6.25a4.1,4.1,0,0,1,2,3.58c0,2-1,3.17-3.14,3.17-2.49,0-3.29-1.91-3.18-4.55v-1.59h-5.05v2c0,4.84,2.16,8.24,8.23,8.24,5,0,8.34-2.68,8.34-7.81a7.09,7.09,0,0,0-2.27-5.67A47.24,47.24,0,0,0,134.91,421.06Z" transform="translate(-92.85 -169.86)"/><path d="M134.91,421.06c-1.59-1-2.89-1.81-2.89-3.87,0-1.84,1.08-2.53,2.78-2.53,2.78,0,3,2.39,3,4.81h4.87c0-2.67.18-8.89-7.87-8.89-5.35,0-8,2.53-8,7.16a7.53,7.53,0,0,0,1.3,4.15c2.06,2.71,5.34,4.19,8,6.25a4.1,4.1,0,0,1,2,3.58c0,2-1,3.17-3.14,3.17-2.49,0-3.29-1.91-3.18-4.55v-1.59h-5.05v2c0,4.84,2.16,8.24,8.23,8.24,5,0,8.34-2.68,8.34-7.81a7.09,7.09,0,0,0-2.27-5.67A47.24,47.24,0,0,0,134.91,421.06Z" transform="translate(-92.85 -169.86)"/><path class="cls-2" d="M155.61,434.89c-3.47,0-3.65-3.65-3.65-5.88v-7.52c0-2.09-.33-6.83,3.65-6.83,2.49,0,2.3,3.26,2.52,5h5a13,13,0,0,0-.11-2.06c-.36-4.62-2.89-6.93-7.4-7-8.09,0-8.64,5.13-8.86,12v3.86c0,7.22.55,12.5,8.86,12.5,5.63,0,7.29-3.8,7.55-8.75,0-.5.07-1,.1-1.55h-5.09C158.06,430.41,158.39,434.89,155.61,434.89Z" transform="translate(-92.85 -169.86)"/><path d="M155.61,434.89c-3.47,0-3.65-3.65-3.65-5.88v-7.52c0-2.09-.33-6.83,3.65-6.83,2.49,0,2.3,3.26,2.52,5h5a13,13,0,0,0-.11-2.06c-.36-4.62-2.89-6.93-7.4-7-8.09,0-8.64,5.13-8.86,12v3.86c0,7.22.55,12.5,8.86,12.5,5.63,0,7.29-3.8,7.55-8.75,0-.5.07-1,.1-1.55h-5.09C158.06,430.41,158.39,434.89,155.61,434.89Z" transform="translate(-92.85 -169.86)"/><path class="cls-2" d="M175.26,410.58c-8.1,0-8.64,5.13-8.86,12v3.86c0,7.23.55,12.49,8.86,12.49s8.84-5.26,8.84-12.49v-3.86C183.89,415.71,183.34,410.58,175.26,410.58Zm3.64,18c0,2.6,0,6.32-3.64,6.32s-3.66-3.64-3.66-5.88V421.5c0-2.1-.32-6.84,3.66-6.84,3.75,0,3.64,4.81,3.64,7Z" transform="translate(-92.85 -169.86)"/><path d="M175.26,410.58c-8.1,0-8.64,5.13-8.86,12v3.86c0,7.23.55,12.49,8.86,12.49s8.84-5.26,8.84-12.49v-3.86C183.89,415.71,183.34,410.58,175.26,410.58Zm3.64,18c0,2.6,0,6.32-3.64,6.32s-3.66-3.64-3.66-5.88V421.5c0-2.1-.32-6.84,3.66-6.84,3.75,0,3.64,4.81,3.64,7Z" transform="translate(-92.85 -169.86)"/><path class="cls-2" d="M199.66,429.69c0,2.6-.18,5.2-3.46,5.2-3.44,0-3.61-2.6-3.61-5.2V411.24h-5.07v18.89c0,6,2,8.84,8.64,8.84s8.56-2.85,8.56-8.84V411.24h-5.06Z" transform="translate(-92.85 -169.86)"/><path d="M199.66,429.69c0,2.6-.18,5.2-3.46,5.2-3.44,0-3.61-2.6-3.61-5.2V411.24h-5.07v18.89c0,6,2,8.84,8.64,8.84s8.56-2.85,8.56-8.84V411.24h-5.06Z" transform="translate(-92.85 -169.86)"/><polygon class="cls-2" points="114.61 245.35 120.54 245.35 120.54 268.46 125.59 268.46 125.59 245.35 131.48 245.35 131.48 241.38 114.61 241.38 114.61 245.35"/><polygon points="114.61 245.35 120.54 245.35 120.54 268.46 125.59 268.46 125.59 245.35 131.48 245.35 131.48 241.38 114.61 241.38 114.61 245.35"/><path class="cls-2" d="M234.54,421.06c-1.57-1-2.88-1.81-2.88-3.87,0-1.84,1.09-2.53,2.78-2.53,2.78,0,3,2.39,3,4.81h4.88c0-2.67.18-8.89-7.87-8.89-5.35,0-7.95,2.53-7.95,7.16a7.53,7.53,0,0,0,1.3,4.15c2.06,2.71,5.34,4.19,8,6.25a4.1,4.1,0,0,1,2,3.58c0,2-1,3.17-3.14,3.17-2.49,0-3.28-1.91-3.18-4.55v-1.59h-5.05v2c0,4.84,2.16,8.24,8.23,8.24,4.95,0,8.35-2.68,8.35-7.81a7.07,7.07,0,0,0-2.28-5.67A46.67,46.67,0,0,0,234.54,421.06Z" transform="translate(-92.85 -169.86)"/><path d="M234.54,421.06c-1.57-1-2.88-1.81-2.88-3.87,0-1.84,1.09-2.53,2.78-2.53,2.78,0,3,2.39,3,4.81h4.88c0-2.67.18-8.89-7.87-8.89-5.35,0-7.95,2.53-7.95,7.16a7.53,7.53,0,0,0,1.3,4.15c2.06,2.71,5.34,4.19,8,6.25a4.1,4.1,0,0,1,2,3.58c0,2-1,3.17-3.14,3.17-2.49,0-3.28-1.91-3.18-4.55v-1.59h-5.05v2c0,4.84,2.16,8.24,8.23,8.24,4.95,0,8.35-2.68,8.35-7.81a7.07,7.07,0,0,0-2.28-5.67A46.67,46.67,0,0,0,234.54,421.06Z" transform="translate(-92.85 -169.86)"/><path class="cls-2" d="M265.42,434.89c-3.45,0-3.63-3.65-3.63-5.88v-7.52c0-2.09-.33-6.83,3.63-6.83,2.5,0,2.33,3.26,2.54,5h5a11.91,11.91,0,0,0-.11-2.06c-.35-4.62-2.88-6.93-7.41-7-8.08,0-8.62,5.13-8.84,12v3.86c0,7.22.54,12.5,8.84,12.5,5.65,0,7.31-3.8,7.56-8.75,0-.5.07-1,.11-1.55H268C267.88,430.41,268.22,434.89,265.42,434.89Z" transform="translate(-92.85 -169.86)"/><path d="M265.42,434.89c-3.45,0-3.63-3.65-3.63-5.88v-7.52c0-2.09-.33-6.83,3.63-6.83,2.5,0,2.33,3.26,2.54,5h5a11.91,11.91,0,0,0-.11-2.06c-.35-4.62-2.88-6.93-7.41-7-8.08,0-8.62,5.13-8.84,12v3.86c0,7.22.54,12.5,8.84,12.5,5.65,0,7.31-3.8,7.56-8.75,0-.5.07-1,.11-1.55H268C267.88,430.41,268.22,434.89,265.42,434.89Z" transform="translate(-92.85 -169.86)"/><path class="cls-2" d="M309.09,416.54c0,2.42.11,5,.26,7.62s.32,5.24.5,7.7h-.07a90.46,90.46,0,0,0-3.61-10.77l-3.94-9.85H297v27.09h5.05v-5.1c0-2.16-.11-4.88-.25-7.58s-.36-5.5-.55-7.73h.08a89.9,89.9,0,0,0,3.61,10.76l3.94,9.65h5.27V411.24h-5.06Z" transform="translate(-92.85 -169.86)"/><path d="M309.09,416.54c0,2.42.11,5,.26,7.62s.32,5.24.5,7.7h-.07a90.46,90.46,0,0,0-3.61-10.77l-3.94-9.85H297v27.09h5.05v-5.1c0-2.16-.11-4.88-.25-7.58s-.36-5.5-.55-7.73h.08a89.9,89.9,0,0,0,3.61,10.76l3.94,9.65h5.27V411.24h-5.06Z" transform="translate(-92.85 -169.86)"/><path class="cls-2" d="M349.26,411.24H338.71v27.09h9.36a7.54,7.54,0,0,0,3.75-.72C356,435.18,356,429,356,423.66c0-4.48-.32-7.48-1.48-9.36A6.27,6.27,0,0,0,349.26,411.24ZM346,434.35h-2.21V415.21h3.33c3,0,3.69,2.53,3.69,8.92C350.78,432,350.48,434.35,346,434.35Z" transform="translate(-92.85 -169.86)"/><path d="M349.26,411.24H338.71v27.09h9.36a7.54,7.54,0,0,0,3.75-.72C356,435.18,356,429,356,423.66c0-4.48-.32-7.48-1.48-9.36A6.27,6.27,0,0,0,349.26,411.24ZM346,434.35h-2.21V415.21h3.33c3,0,3.69,2.53,3.69,8.92C350.78,432,350.48,434.35,346,434.35Z" transform="translate(-92.85 -169.86)"/><path class="cls-2" d="M364.13,411.24l-6.46,27.09h5.41l1.34-6.87h5.93l1.33,6.87h5.42L371,411.24Zm1.08,16.25L367.46,416c.14,1.27,2.09,11.45,2.09,11.45Z" transform="translate(-92.85 -169.86)"/><path d="M364.13,411.24l-6.46,27.09h5.41l1.34-6.87h5.93l1.33,6.87h5.42L371,411.24Zm1.08,16.25L367.46,416c.14,1.27,2.09,11.45,2.09,11.45Z" transform="translate(-92.85 -169.86)"/><path class="cls-2" d="M281.15,411.24l-6.47,27.09h5.41l1.34-6.87h5.93l1.33,6.87h5.42L288,411.24Zm1.08,16.25L284.47,416c.14,1.27,2.09,11.45,2.09,11.45Z" transform="translate(-92.85 -169.86)"/><path d="M281.15,411.24l-6.47,27.09h5.41l1.34-6.87h5.93l1.33,6.87h5.42L288,411.24Zm1.08,16.25L284.47,416c.14,1.27,2.09,11.45,2.09,11.45Z" transform="translate(-92.85 -169.86)"/><path class="cls-2" d="M323,411.24l-6.47,27.09H322l1.33-6.87h5.93l1.34,6.87H336l-6.14-27.09Zm1.08,16.25L326.35,416c.15,1.27,2.09,11.45,2.09,11.45Z" transform="translate(-92.85 -169.86)"/><path d="M323,411.24l-6.47,27.09H322l1.33-6.87h5.93l1.34,6.87H336l-6.14-27.09Zm1.08,16.25L326.35,416c.15,1.27,2.09,11.45,2.09,11.45Z" transform="translate(-92.85 -169.86)"/><path class="cls-1" d="M407.92,430.25v.13a36,36,0,0,1-5.68,19.82,36,36,0,0,0,5.68-19.82v-.13a51,51,0,0,0-2.39-14.86A51.41,51.41,0,0,1,407.92,430.25Z" transform="translate(-92.85 -169.86)"/><path d="M407.92,430.25v.13a36,36,0,0,1-5.68,19.82,36,36,0,0,0,5.68-19.82v-.13a51,51,0,0,0-2.39-14.86A51.41,51.41,0,0,1,407.92,430.25Z" transform="translate(-92.85 -169.86)"/><path class="cls-1" d="M395,458.21c-8.34,6.81-20.22,10.57-34.8,10.57C374.81,468.78,386.69,465,395,458.21Z" transform="translate(-92.85 -169.86)"/><path d="M395,458.21c-8.34,6.81-20.22,10.57-34.8,10.57C374.81,468.78,386.69,465,395,458.21Z" transform="translate(-92.85 -169.86)"/><path class="cls-1" d="M263.79,172.92a31.69,31.69,0,0,0-13.41-3.06,33.75,33.75,0,0,0-20.06,7,33.67,33.67,0,0,1,20.06-7A31.52,31.52,0,0,1,263.79,172.92Z" transform="translate(-92.85 -169.86)"/><path d="M263.79,172.92a31.69,31.69,0,0,0-13.41-3.06,33.75,33.75,0,0,0-20.06,7,33.67,33.67,0,0,1,20.06-7A31.52,31.52,0,0,1,263.79,172.92Z" transform="translate(-92.85 -169.86)"/><path class="cls-2" d="M407.92,430.25a51.41,51.41,0,0,0-2.39-14.86,71.63,71.63,0,0,0-5.75-13.45L287.29,197.15c-4.87-8.87-10.58-15.65-16.85-20.26-.78-.58-1.58-1.12-2.38-1.63a37.29,37.29,0,0,0-4.27-2.34,31.52,31.52,0,0,0-13.41-3,33.67,33.67,0,0,0-20.06,7c-6.27,4.61-12,11.39-16.85,20.26L101,401.94a66.94,66.94,0,0,0-7.19,19,49.15,49.15,0,0,0-.82,6c-.09,1.13-.13,2.24-.13,3.33v.13a35.1,35.1,0,0,0,12.88,27.83c8.34,6.81,20.22,10.57,34.81,10.57H360.23c14.58,0,26.46-3.76,34.8-10.57a35.36,35.36,0,0,0,5.52-5.63c.6-.77,1.17-1.56,1.69-2.38a36,36,0,0,0,5.68-19.82Zm-16.83,23.13c-6.92,5.67-17.32,9.17-30.86,9.17H140.54c-13.54,0-23.94-3.5-30.87-9.17s-10.57-13.5-10.59-23.13c0-7.5,2.3-16.09,7.36-25.31l112.49-204.8c4.53-8.24,9.72-14.3,15.08-18.23s10.9-5.82,16.37-5.82,11,1.87,16.37,5.82,10.55,10,15.09,18.23l112.48,204.8c5.07,9.22,7.37,17.81,7.37,25.31C401.66,439.88,398,447.69,391.09,453.38Z" transform="translate(-92.85 -169.86)"/><path d="M407.92,430.25a51.41,51.41,0,0,0-2.39-14.86,71.63,71.63,0,0,0-5.75-13.45L287.29,197.15c-4.87-8.87-10.58-15.65-16.85-20.26-.78-.58-1.58-1.12-2.38-1.63a37.29,37.29,0,0,0-4.27-2.34,31.52,31.52,0,0,0-13.41-3,33.67,33.67,0,0,0-20.06,7c-6.27,4.61-12,11.39-16.85,20.26L101,401.94a66.94,66.94,0,0,0-7.19,19,49.15,49.15,0,0,0-.82,6c-.09,1.13-.13,2.24-.13,3.33v.13a35.1,35.1,0,0,0,12.88,27.83c8.34,6.81,20.22,10.57,34.81,10.57H360.23c14.58,0,26.46-3.76,34.8-10.57a35.36,35.36,0,0,0,5.52-5.63c.6-.77,1.17-1.56,1.69-2.38a36,36,0,0,0,5.68-19.82Zm-16.83,23.13c-6.92,5.67-17.32,9.17-30.86,9.17H140.54c-13.54,0-23.94-3.5-30.87-9.17s-10.57-13.5-10.59-23.13c0-7.5,2.3-16.09,7.36-25.31l112.49-204.8c4.53-8.24,9.72-14.3,15.08-18.23s10.9-5.82,16.37-5.82,11,1.87,16.37,5.82,10.55,10,15.09,18.23l112.48,204.8c5.07,9.22,7.37,17.81,7.37,25.31C401.66,439.88,398,447.69,391.09,453.38Z" transform="translate(-92.85 -169.86)"/></svg>